<svg id="Layer_1" data-name="Layer 1" xmlns="http://www.w3.org/2000/svg" xmlns:xlink="http://www.w3.org/1999/xlink" viewBox="0 0 1177 1166"><defs><style>.cls-1,.cls-17,.cls-18,.cls-20,.cls-21,.cls-23,.cls-25,.cls-31,.cls-33,.cls-5,.cls-7{fill:none;}.cls-2{fill:#fad3c0;}.cls-3{fill:#f33829;}.cls-4{fill:#91c7c9;}.cls-5{stroke:#fff;}.cls-17,.cls-18,.cls-19,.cls-25,.cls-33,.cls-35,.cls-36,.cls-5,.cls-7{stroke-miterlimit:10;}.cls-17,.cls-18,.cls-19,.cls-20,.cls-21,.cls-23,.cls-25,.cls-31,.cls-5,.cls-7{stroke-width:3px;}.cls-6{fill:#b5c8c9;}.cls-7{stroke:#e9ad00;}.cls-8{fill:#e9ad00;}.cls-9{fill:#ffc1b5;}.cls-10{clip-path:url(#clip-path);}.cls-11{fill:#ffb3a4;}.cls-12{fill:#e8786f;}.cls-13{fill:#faf5e9;}.cls-14{fill:#f66e63;}.cls-15{fill:#db7800;}.cls-16{fill:#f99890;}.cls-17{stroke:#91c7c9;}.cls-18,.cls-19{stroke:#f33829;}.cls-19{fill:#fff;}.cls-20{stroke:#c45641;}.cls-20,.cls-21,.cls-23,.cls-31{stroke-linecap:round;stroke-linejoin:round;}.cls-21{stroke:#e2564b;}.cls-22{fill:#ffd7cf;}.cls-23{stroke:#e99000;}.cls-24{fill:#88c51b;}.cls-25{stroke:#5fc4c9;}.cls-26{clip-path:url(#clip-path-2);}.cls-27{fill:#fff4de;}.cls-28{fill:#cb9349;}.cls-29{fill:#ad8753;}.cls-30{fill:#e3b06c;}.cls-31,.cls-33{stroke:#5c4628;}.cls-32{fill:#5c4628;}.cls-33{stroke-width:2px;}.cls-34,.cls-35,.cls-36{fill:#454545;}.cls-35{font-size:26px;}.cls-35,.cls-36{stroke:#454545;stroke-width:0.4px;font-family:IndieFlower, Indie Flower;}.cls-36{font-size:30px;}</style><clipPath id="clip-path"><path class="cls-1" d="M740.1,352.23s-3.23,41.78,13.5,54.59L708.06,406s1.07-46.27,0-53.75Z"/></clipPath><clipPath id="clip-path-2"><path class="cls-1" d="M411.68,586.36c1.11-.75,2.17-1.51,3.18-2.27l.06-.05c7.3-5.51,11.82-11,11.12-13.51a.32.32,0,0,1,0-.09l0-.08h0c-1.85-5.73-14.3-8.29-14.3-8.29-5.77-14-18.37-25-20.45-26,0,0,2.43-14.85-4.73-16.67a7.88,7.88,0,0,0-.87-.18v0c-4.6-.72-10.36,1.64-16.11,6-15.66-12.51-40.11-21.55-78.09-21.55C167.77,503.63,167,609.92,166.36,619c-2.74,38.45,17.12,122.28,50.58,111.14s-54.89-67.4-20-130.8H395.46s.35-1.72.66-4.67a84.68,84.68,0,0,0,13.71-7.13h0l.17-.11,1.46-1Z"/></clipPath></defs><g id="NOTES"><rect class="cls-2" x="980.14" y="214.63" width="42.53" height="42.53"/><rect class="cls-3" x="999.12" y="209.39" width="4.57" height="10.68"/><path class="cls-4" d="M953.71,214.63V301a14.55,14.55,0,0,1-14.54,14.55H864.38a14.52,14.52,0,0,0,13.82-14.52V214.63Z"/><rect class="cls-3" x="911.36" y="209.39" width="4.57" height="10.68"/><line class="cls-5" x1="892.69" y1="235.51" x2="937.41" y2="235.51"/><line class="cls-5" x1="892.69" y1="246.6" x2="937.41" y2="246.6"/><line class="cls-5" x1="892.69" y1="257.68" x2="937.41" y2="257.68"/><line class="cls-5" x1="892.69" y1="268.77" x2="937.41" y2="268.77"/><line class="cls-5" x1="892.69" y1="279.86" x2="937.41" y2="279.86"/></g><g id="CHAIR"><polyline class="cls-6" points="638.11 781.58 581.75 1055.29 587.14 1055.29 662.55 781.65"/><polyline class="cls-6" points="837.98 775.12 895.45 1055.29 890.23 1055.29 814.89 781.53"/><polyline class="cls-6" points="759.71 781.58 816.06 1055.29 810.67 1055.29 735.26 781.65"/><path class="cls-6" d="M899.52,647.15l-34,101.05a51.64,51.64,0,0,1-49,35.18H624a51.65,51.65,0,0,1-49-35.18l-28-83.12a22.36,22.36,0,0,1,21.19-29.49h21.55A20.38,20.38,0,0,0,610,618.05l12.56-89.15a43.15,43.15,0,0,1,42.72-37.13H838.62a43.13,43.13,0,0,1,42.73,49.13l-10.78,76.92a15.6,15.6,0,0,0,13.28,17.62,15.43,15.43,0,0,0,2.15.15h5.2a8.76,8.76,0,0,1,8.32,11.56Z"/><path class="cls-5" d="M885,634.51H870.76a44.32,44.32,0,0,0-42.31,30l-24.39,67.76a46.78,46.78,0,0,1-44.32,31.85H582.3"/></g><g id="WOMAN"><g id="HAIR"><path class="cls-7" d="M733.78,264.85c43.81,1,25.92,47.06,50.78,55.13,17.6,5.71,39.74,14.12,39.27,49.43-.39,29.13-2.92,33.19,19.31,45.63,30.46,17,22.24,74.3-39.17,72.26"/><path class="cls-8" d="M667,298c1.07-2.92,10-41.52,68.17-34.72,43.52,5.09,26,54.32,46.6,61.27,15.62,5.26,39.63,13.25,37.06,48.47-2.12,29.05-4.89,33,16.56,46.69,29.4,18.84,17.78,75.5-43.4,69.8S639.24,486,635.1,474.14c-3-8.7-28.87-60.19,8.76-82.49,11.32-6.71,32.22-14.86,30-27.9C669.36,337.35,655.78,328.58,667,298Z"/></g><g id="NECK"><path class="cls-9" d="M740.1,352.23s-3.23,41.78,13.5,54.59L708.06,406s1.07-46.27,0-53.75Z"/><g class="cls-10"><ellipse class="cls-11" cx="718.29" cy="363.41" rx="31.25" ry="22.83"/></g></g><g id="HEAD"><path class="cls-9" d="M751.52,336.94s-9.12,39.82-41.94,38.42c-21.82-.93-33.1-38.58-34.69-56.61-1.33-15.05,18.29-26.62,32.66-23.57,17.7,3.76,18.66,33.13,37.26,31.42Z"/><path class="cls-12" d="M698.38,321.31a126.34,126.34,0,0,0-22,7.84,62.37,62.37,0,0,1-2.27-11.4c-1-11,9.21-20.11,20.37-23.06,1.17.38,2.38.8,3.65,1.27C703.9,298.09,694.7,309.13,698.38,321.31Z"/></g><g id="HAIR-2"><path class="cls-8" d="M705.28,294.42c6.07,2.24-7.34,14-4.41,27a371,371,0,0,0-38.07,10.37s-11.49-17.65-2.41-29.68S685.77,287.22,705.28,294.42Z"/></g><circle class="cls-9" cx="745.05" cy="327.84" r="11.03"/><path id="LEFT_HAND" data-name="LEFT HAND" class="cls-9" d="M652.43,427.49c14.9-7.52,31.16,2.67,23.1,26.36-5.84,17.15-57.95,118.46-63.86,127.26C575.78,601.19,435,578.4,435,578.4s-19.58,8.35-25.26,8.42c-2.49,0-17.64-2.84-17.64-2.84s-.49-1.75,1.84-3.93,18.62.28,12.84-5c-2.57-2.33-16,2.15-22,7.47s-8.55.81-8.55.81,5.93-10.06,8-11.84,15.53-9.16,24.48-10c6.49-.61,22,1.21,30.08,3.52,31.44-6.1,95.64-14.53,137.32-12.06C576.05,553,619.33,444.2,652.43,427.49Z"/><path id="TORSO" class="cls-13" d="M751.41,392.09s9.6,17.51,62.3,35.6c0,0-.19,22.66-8.74,52.46-13.53,47.16-31,113.1-30.74,139.07,0,0-56.83,16.37-115.45,0,0,0,.44-78.68-4.55-82.24s-17.88-36.56-13.61-52.93,21.27-59.12,21.27-59.12,34.79-10.41,37.77-31.06A205.68,205.68,0,0,0,751.41,392.09Z"/><g id="LEGS"><g id="LEFT_LEG" data-name="LEFT LEG"><g id="FOOT"><path class="cls-9" d="M456.27,921c-9.1,33.83-38.57,66.21-36.75,73.48s13.17,16.18,10.2,27.64c-2.08,8-18.74,4.12-31.65,10.55s-8.68,13.11-29.42,13.83-38.21,0-38.21,0,.36-8,9.82-9.82,40.34-20,49.8-56.75c8.76-34,11.64-58.93,11.64-58.93Z"/><path class="cls-11" d="M456.27,921c-2.69,10-7.38,19.84-12.1,29-21.08-1.56-35.62-6.71-45.16-11.38,1.93-11,2.69-17.57,2.69-17.57Z"/></g><path id="PANT" class="cls-4" d="M659.2,609.63l-14.86,14.92c-5.46,1.45-153.51,48.38-173.52,75.66S385.7,925.73,385.7,925.73s27.64,19.41,94.59,12.1c0,0,38.18-79.74,43.64-189.24,0,0,169.15,11.65,193.89-29.1s3.67-102.22,3.67-102.22S677.94,615.34,659.2,609.63Z"/><g id="SLIPPER"><rect class="cls-14" x="314.89" y="1046.85" width="117.5" height="10.23" rx="4.87"/><path class="cls-14" d="M384.73,1046.85s-13.58-15.87-16.13-31.53c-.9-5.54-18.12,2.49-27.8,6.47-26.31,10.81-20.8,25.06-20.8,25.06Z"/></g></g><g id="RIGHT_LEG" data-name="RIGHT LEG"><g id="FOOT-2"><path class="cls-9" d="M580.17,922.52c6.51,14.22,25.58,61.54,26,77.42.68,23.38-40.69,43.35-43.49,45.68-4.65,3.87.85,6.86.85,6.86s77.35-8.8,86-12.8-11.27-26.08-13.28-42.32.88-61.34-2.69-81.43Z"/><path class="cls-11" d="M635.51,945.64c-11.81,3.87-27.24,8.11-42,9.68-5.11-13.69-10.46-26.5-13.35-32.8l53.45-6.59C634.94,923.33,635.38,934.14,635.51,945.64Z"/></g><path id="PANT-2" class="cls-4" d="M774.32,609.63s47.9,84.76,12.62,126.94C748.85,782.12,590.15,765,590.15,765s51.28,55.63,58.92,175.31c0,0-52.43,9.83-84.42,1.46,0,0-46.06-154-49.82-197.14C510.11,690.39,685.08,654,685.08,654l7.07-39S728.19,620.13,774.32,609.63Z"/><g id="SLIPPER-2"><rect class="cls-14" x="543.82" y="1046.54" width="117.5" height="10.23" rx="4.87" transform="translate(-124.18 81.65) rotate(-7.03)"/><path class="cls-14" d="M612.89,1045.26s-10-24-34.34-21-29.9,28.93-29.9,28.93Z"/></g></g></g><g id="RIGHT_HAND" data-name="RIGHT HAND"><path class="cls-9" d="M853.8,591.24c-27.29,17.31-160-36.57-160-36.57s-8,11.51-16.83,11.51-17-3.44-21.6.12-9.4,9.34-12.92,9.85A25.23,25.23,0,0,1,629.88,575s3-5.34,6.15-10.48c-2.81,1.89-6.63,6.1-8.76,7.75a4.9,4.9,0,0,1-6,.23s6.16-8.53,8.54-10.79,9.14-5.19,13.42-6.76c4.7-1.82,31.89-12.44,45.31-14,14.24-1.66,130.21,9.73,130.21,9.73s-26.41-65.8-28.12-82.85c-2.52-25.15,8.17-40.42,21-40.44C834.47,427.3,876.43,576.89,853.8,591.24Z"/><path class="cls-15" d="M634.16,576.06a.46.46,0,0,1-.28-.08.52.52,0,0,1-.16-.72h0c.92-1.44,9.07-14.15,11.95-15.58,5-2.46,11.51-5.71,11.51-5.71l.47.94-11.51,5.71c-2.22,1.1-9.08,11.35-11.54,15.2A.51.51,0,0,1,634.16,576.06Z"/><path class="cls-15" d="M639.88,576.06a.52.52,0,0,1-.43-.81c.32-.48,7.95-11.62,10.87-13.06,5-2.47,11.51-5.71,11.51-5.71l.47.93s-6.52,3.25-11.51,5.71c-2.23,1.1-8.32,9.55-10.48,12.72A.53.53,0,0,1,639.88,576.06Z"/></g></g><g id="TABLE"><rect class="cls-2" x="89.29" y="595.72" width="1011.89" height="21.69"/><rect class="cls-2" x="947.14" y="982.06" width="126" height="15.21"/><rect class="cls-2" x="964.49" y="618.13" width="91.13" height="20.16"/><path class="cls-2" d="M1090.89,1057.07h0a9.26,9.26,0,0,1-9.11-7.58l-69.63-378.84a2.13,2.13,0,0,0-4.19,0l-69.64,378.84a9.24,9.24,0,0,1-9.11,7.58h0a9.27,9.27,0,0,1-9.11-10.93l75.1-408.56h29.7l75.1,408.56a9.25,9.25,0,0,1-7.42,10.78A9.48,9.48,0,0,1,1090.89,1057.07Z"/><rect class="cls-2" x="117.51" y="982.06" width="126" height="15.21"/><rect class="cls-2" x="134.85" y="618.13" width="91.13" height="20.16"/><path class="cls-2" d="M261.26,1057.07h0a9.26,9.26,0,0,1-9.11-7.58L182.51,670.66a2.13,2.13,0,0,0-4.19,0l-69.63,378.83a9.26,9.26,0,0,1-9.11,7.58h0a9.24,9.24,0,0,1-9.26-9.24,9.65,9.65,0,0,1,.15-1.69l75.09-408.56h29.71l75.1,408.56a9.25,9.25,0,0,1-9.11,10.93Z"/></g><g id="MESSAGE_ICON" data-name="MESSAGE ICON"><path class="cls-2" d="M370.71,414.26c5.32,0,9-5.18,9-10.63V373.11A10.72,10.72,0,0,0,369,362.38H299.51a10.72,10.72,0,0,0-10.72,10.72h0v30.52a10.72,10.72,0,0,0,10.72,10.72h40.73c10,0,15.34,16,15.34,16S359,414.26,370.71,414.26Z"/><circle class="cls-14" cx="314.38" cy="388.1" r="4"/><circle class="cls-14" cx="334.24" cy="388.36" r="4"/><circle class="cls-14" cx="354.1" cy="388.36" r="4"/></g><g id="LAPTOP"><path class="cls-3" d="M506.86,451.9H344.25A11.12,11.12,0,0,0,333.11,463a11,11,0,0,0,.69,3.88l41,111.4H565.22L522.82,463A17,17,0,0,0,506.86,451.9Z"/><path class="cls-14" d="M503.66,457.55H345.1a10.85,10.85,0,0,0-10.18,14.6l40,108.63H560.57L519.23,468.41A16.6,16.6,0,0,0,503.66,457.55Z"/><path class="cls-3" d="M374.43,578.27H686.35a15.94,15.94,0,0,1,15.94,15.94h0v.43H390.37a15.94,15.94,0,0,1-15.94-15.94h0v-.43Z"/><ellipse class="cls-16" cx="442.36" cy="519.17" rx="15.76" ry="19.45" transform="translate(-239.45 500.52) rotate(-48)"/><rect class="cls-6" x="592.19" y="584.13" width="13.29" height="4.77"/><rect class="cls-3" x="617.58" y="584.13" width="13.29" height="4.77"/></g><g id="CUP"><path class="cls-17" d="M948.67,549.85h-5.14V539.44H896.62v47.38a8.89,8.89,0,0,0,8.88,8.9h29.13a8.89,8.89,0,0,0,8.9-8.9h0V570.67h5.14a10.41,10.41,0,1,0,0-20.82Zm3.66,14.29a5.49,5.49,0,0,1-3.88,1.6h-4.92v-11h4.92a5.48,5.48,0,0,1,3.88,9.36Z"/><path class="cls-2" d="M923.65,535c-2.47-2.53-15.41-11-12.52-23.19s21.21-9.55,20.65-23.17c-.48-11.55-10.6-6.92-12.82-2.71,0,0,1.34-15.24,15.26-10.15,23.5,8.59-3.78,33-11.58,39.75C915.48,521.74,923.65,535,923.65,535Z"/><path class="cls-2" d="M940.08,502.33s-3,10.29-15.21,15.35C924.87,517.68,943.61,517.68,940.08,502.33Z"/></g><g id="LAMP"><path class="cls-18" d="M1075.25,595.72s35.16-192.63-140.94-219.52"/><path class="cls-14" d="M1075.94,594.65H982.2c6.54-15.17,25-26.11,46.87-26.11S1069.4,579.48,1075.94,594.65Z"/><path class="cls-3" d="M1075.94,594.65h-11.8c-6.21-14.39-23.77-24.77-44.47-24.77a38.63,38.63,0,0,0-4.32.16,63.3,63.3,0,0,1,13.72-1.5C1050.88,568.54,1069.4,579.48,1075.94,594.65Z"/><path class="cls-14" d="M935.82,378c-.85,3.81-3.85,6.79-8.11,8.6-4.88,2.08-11.42,2.63-18.22,1.12S897,383,893.43,379c-3.1-3.44-4.57-7.41-3.73-11.22,1.81-8.18,13.6-12.53,26.34-9.72S937.63,369.8,935.82,378Z"/><path class="cls-14" d="M935.82,378c-.79,3.57-3.49,6.42-7.35,8.26a10.3,10.3,0,0,0,3.63-5.68c1.69-7.64-6.57-15.95-18.44-18.58-11.2-2.47-21.62,1-24.19,7.8a10.39,10.39,0,0,1,.23-2c1.81-8.19,13.6-12.54,26.34-9.73S937.63,369.81,935.82,378Z"/><path class="cls-3" d="M925.13,384.69a27.62,27.62,0,0,1-28.56-6.32c-1.65-3.6,8.09-4.86,15.68-3.18S928.27,382.79,925.13,384.69Z"/></g><g id="SHELF"><path id="SHADOW" class="cls-2" d="M239.07,296.53H572.4v30.52L239,298.88C238.12,298.79,238.18,296.53,239.07,296.53Z"/><g id="BOOKS"><rect class="cls-19" x="517.29" y="145.58" width="24.32" height="125.15" rx="5.15"/><rect class="cls-3" x="488.99" y="156.17" width="26.8" height="117.04" rx="5.03"/><rect class="cls-6" x="475.09" y="127.75" width="13.9" height="145.46" rx="4.69"/><rect class="cls-19" x="451.77" y="164.65" width="22.32" height="107.08" rx="5.14"/><path class="cls-3" d="M410.26,273.21H390.78l48.73-130.57a2.66,2.66,0,0,1,2.48-1.73h13.82a2.68,2.68,0,0,1,2.65,2.73,2.58,2.58,0,0,1-.17.91Z"/></g><rect id="SHELF-2" class="cls-19" x="239.8" y="273.21" width="331.65" height="21.88"/><g id="PLANT"><path class="cls-3" d="M273.32,224.7H357v9.19a39.33,39.33,0,0,1-39.33,39.33h-5.06a39.33,39.33,0,0,1-39.33-39.33h0V224.7h0Z"/><path class="cls-4" d="M348.63,224.7h-62s-18.14,14.79-28.49,2.66c-7.5-8.78,28.38-9.17,28.38-9.17l1.08-.38s-15.39-32.32-.84-37.71c10-3.73,12.48,23.65,13,32.54,5.29-2.21,15.61-5.4,16.5,3,0,0,1.15-34.59,15.64-31.29,12.05,2.75-5.82,35.26-5.82,35.26l1.25.76s33.11-24.18,41.23-18.56C374.7,206.06,348.63,224.7,348.63,224.7Z"/><path class="cls-6" d="M296.12,224.7s.64-29.82,11.87-29-4.42,29-4.42,29Z"/><path class="cls-6" d="M296.12,224.7s-11.26-28.14-26.52-20.93c-14.91,7,17.16,20.93,17.16,20.93Z"/><path class="cls-6" d="M319.26,224.7s10.11-25.35,26.14-22.94-19.79,22.94-19.79,22.94Z"/><path class="cls-6" d="M335.75,224.7s31.36-15.79,37-6.27S335.75,224.7,335.75,224.7Z"/></g></g><path class="cls-20" d="M706.47,358.91s8.26.94,14.88-8.93"/><path class="cls-21" d="M739.34,330.59s0-9.12,8-9"/><line class="cls-21" x1="741.19" y1="325.66" x2="746.52" y2="328.15"/><circle class="cls-22" cx="753.6" cy="335.97" r="4.05"/><polyline class="cls-21" points="701.02 331.92 701.02 347.55 705.19 349.24"/><path class="cls-23" d="M708.06,318.44s4.57-3.54,12.46,0"/><ellipse class="cls-24" cx="715.09" cy="329.66" rx="2.75" ry="3.56" transform="translate(-46.17 128.38) rotate(-9.94)"/><ellipse class="cls-24" cx="689.81" cy="336.07" rx="2.75" ry="3.56" transform="translate(-58.63 166.92) rotate(-13.24)"/><path id="PANT-3" class="cls-25" d="M564.65,941.76s-46.06-154-49.82-197.14C510.11,690.39,685.08,654,685.08,654"/><g class="cls-26"><path class="cls-27" d="M426,570.25c-1.65-5.85-14.36-8.46-14.36-8.46-5.77-13.95-18.37-25-20.45-26,0,0,2.43-14.85-4.73-16.67-4.72-1.2-10.86,1.17-17,5.78-15.67-12.52-40.12-21.56-78.11-21.56-123.66,0-124.42,106.29-125.07,115.41C163.62,657.21,183.48,741,216.94,729.9s-54.89-67.4-20-130.8H395.46s.35-1.72.66-4.67C413.24,587.49,427.24,574.53,426,570.25Z"/><path class="cls-28" d="M300.32,487.53c-13.53-8.63-55,11.21-57.6,41.28-1.09,12.68,4.65,28.18,17.28,35,20.4,11.09,49-5.67,53.76-23,1.41-5.13-.34-12.38-3.84-26.88C306.06,498,304.14,490,300.32,487.53Z"/><path class="cls-29" d="M349.69,556.88c-13.53-8.63-55,11.21-57.6,41.28-1.09,12.68,4.65,28.18,17.28,35,20.4,11.09,49-5.67,53.76-23,1.41-5.12-.34-12.38-3.84-26.88C355.44,567.3,353.51,559.32,349.69,556.88Z"/><path class="cls-30" d="M384.24,472.1c-13.53-8.63-55,11.21-57.6,41.28-1.09,12.68,4.65,28.18,17.28,35,20.4,11.09,49-5.67,53.76-23,1.41-5.12-.34-12.38-3.84-26.88C390,482.52,388.06,474.54,384.24,472.1Z"/><path class="cls-30" d="M431.73,511.93c-13.53-8.63-55,11.21-57.6,41.28-1.09,12.68,4.65,28.18,17.28,35,20.4,11.09,49-5.67,53.76-23,1.41-5.12-.34-12.37-3.84-26.88C437.47,522.36,435.55,514.37,431.73,511.93Z"/><path class="cls-28" d="M214.24,676.09c-13.53-8.63-55,11.21-57.6,41.28-1.09,12.68,4.65,28.18,17.28,35,20.4,11.09,49-5.67,53.76-23,1.41-5.12-.34-12.37-3.84-26.88C220,686.52,218.06,678.53,214.24,676.09Z"/><path class="cls-28" d="M190.4,497.13c18.92-.5,42,11.36,43.68,28.8,1.89,19.23-23.37,33.1-37.44,37.44-7,2.14-20,6.17-32.16-1s-18.1-22.08-15.84-35C152.05,507.76,173.79,497.57,190.4,497.13Z"/><path class="cls-29" d="M305.12,653.61c7.56-16.33-10.5-39-25-57.12-11.37-14.26-20.32-20-26.4-23a69.28,69.28,0,0,0-24.48-7.2c-5.61-.55-17.75-1.6-31.2,4.32-6.26,2.75-16.61,7.31-21.6,17.28-7.31,14.62,1.45,31.82,4.8,38.4C196,655.18,231,672.86,263.84,670.89,272.54,670.37,298.07,668.83,305.12,653.61Z"/></g><g id="CAT"><path class="cls-31" d="M345.63,576.4c-6.83-19.35,6.94-38.7,25.38-51.08"/><path class="cls-32" d="M409.83,587.58c5.46-7.81,2.61-16.5,2.61-16.5S425,568.5,426,570.36h0a1,1,0,0,1,0,.16c0,.2.05.4.07.6h0C426.05,574.48,419.41,581.43,409.83,587.58Z"/><path class="cls-32" d="M380.86,530.51a20,20,0,0,0-15.64-1.71c7.07-6.58,14.66-10.49,20.41-9.59C385.45,522.62,380.86,530.51,380.86,530.51Z"/><path class="cls-31" d="M268.3,527.79S287,534.26,287,558.06s-22.66,27.51-22.66,27.51h23.77a13.8,13.8,0,0,1,13.8,13.8h0"/><path class="cls-33" d="M198,599.27c0-4.77,11.38-17.65,18.25-17"/></g><path class="cls-31" d="M374.51,560.48a7.47,7.47,0,0,1-9.4-11.61"/><path class="cls-31" d="M395.22,586a7.47,7.47,0,1,1-9.4-11.62"/><path class="cls-32" d="M374.94,572.87l3.56-.57a1,1,0,0,0,.8-1.11,1.08,1.08,0,0,0-.2-.45l-2.28-2.8a1,1,0,0,0-1.36-.13.9.9,0,0,0-.29.4l-1.28,3.35a1,1,0,0,0,1.05,1.31Z"/><path class="cls-31" d="M357.43,592.32s10.4,11.95,34.3,4.56"/><path class="cls-34" d="M246.76,472.74c.13,1.66.17,3.34.4,5a8.9,8.9,0,0,0,2.16,4.45c.13.16.28.31.4.48a1.05,1.05,0,1,1-1.59,1.38,12.53,12.53,0,0,1-2.76-4.71,17,17,0,0,1-.61-5.85c.05-1.3.11-2.61.05-3.91-.1-2.34-1.42-3.69-3.74-3.68-2,0-4,.27-6,.36a9.4,9.4,0,0,1-5.16-1.16,8.57,8.57,0,0,1-4.17-6.24c-.24-1.24-.41-2.49-.69-3.71a5,5,0,0,0-4.56-4.11,19,19,0,0,0-5.52.47c-1.73.27-3.48.47-5.23.64a4,4,0,0,1-1.36-.18,4.56,4.56,0,0,1-3.79-5c.06-1.49.32-3,.4-4.45a12.6,12.6,0,0,0-.11-3.07c-.49-2.61-2.21-4.15-5.05-4.64-.85-.14-1.73-.19-2.59-.26s-1.25-.47-1.22-1.11a1,1,0,0,1,1.24-1,26.41,26.41,0,0,1,4.07.57,7.53,7.53,0,0,1,5.8,7.44c0,1.62-.2,3.24-.3,4.86,0,.66-.12,1.33-.11,2a2.32,2.32,0,0,0,1.84,2.49,7.68,7.68,0,0,0,3.81.06c1.81-.31,3.6-.76,5.41-.92a12.76,12.76,0,0,1,4.09.26,6.84,6.84,0,0,1,5.38,6,43,43,0,0,0,.84,4.24,6,6,0,0,0,6,4.66c1.83,0,3.66-.24,5.49-.31a13.1,13.1,0,0,1,2.87.12,5.43,5.43,0,0,1,4.42,5.11c.09,1.23,0,2.48,0,3.71Z"/><path class="cls-34" d="M250.69,487.17c1.05-3.84,2.06-7.57,3.09-11.3a3.47,3.47,0,0,1,.23-.71,1,1,0,0,1,2,.52,3.22,3.22,0,0,1-.13.6q-1.66,6.12-3.34,12.25c-.31,1.12-.82,1.37-1.87.92-3.93-1.69-7.87-3.37-11.79-5.09a1.68,1.68,0,0,1-.87-.93c-.22-.85.68-1.41,1.6-1,2.32,1,4.63,2,6.94,3Z"/><text class="cls-35" transform="translate(137.64 425.05)">Isabella</text><text class="cls-36" transform="translate(752.7 218.54)">Candela</text><path class="cls-34" d="M709.28,244.83c.12-1.4.19-2.74.37-4.08a29.22,29.22,0,0,1,6.84-15.3,29.75,29.75,0,0,1,16.13-9.88,29.08,29.08,0,0,1,6.7-.79,1.34,1.34,0,1,1,0,2.67,27,27,0,0,0-18.11,7,26.67,26.67,0,0,0-8.82,16c-.23,1.39-.27,2.82-.39,4.23a1.21,1.21,0,0,0,0,.19l.17.14a1.76,1.76,0,0,1,.21-.41l5.84-5.84a1.39,1.39,0,0,1,1.47-.44,1.32,1.32,0,0,1,.68,2,3,3,0,0,1-.33.37l-8.23,8.23a1.4,1.4,0,0,1-2.3,0c-2.74-2.74-5.49-5.48-8.22-8.23a2,2,0,0,1-.5-.83,1.26,1.26,0,0,1,.64-1.42,1.29,1.29,0,0,1,1.6.24c1,1,2.07,2.06,3.11,3.09s1.86,1.87,2.8,2.8C709.06,244.64,709.17,244.72,709.28,244.83Z"/></svg>